<?xml version="1.0" standalone="no"?>
<!DOCTYPE svg PUBLIC "-//W3C//DTD SVG 20010904//EN"
 "http://www.w3.org/TR/2001/REC-SVG-20010904/DTD/svg10.dtd">
<svg version="1.0" role="img" aria-labelledby="bosch-logo-title" xmlns="http://www.w3.org/2000/svg"
 width="397.000000pt" height="127.000000pt" viewBox="0 0 397.000000 127.000000"
 preserveAspectRatio="xMidYMid meet">
<title id="bosch-logo-title">Bosch Appliance Repair Bergen County NJ</title>
<desc>Professional Bosch appliance repair service in Bergen County, New Jersey</desc>
<metadata>
Created by potrace 1.16, written by Peter Selinger 2001-2019
</metadata>
<g transform="translate(0.000000,127.000000) scale(0.100000,-0.100000)"
fill="#e41e26" stroke="none">
<path d="M537 1033 c18 -2 50 -2 70 0 21 2 7 4 -32 4 -38 0 -55 -2 -38 -4z"/>
<path d="M738 990 c79 -40 130 -93 170 -175 99 -202 21 -442 -172 -531 -136
-62 -271 -51 -397 34 -63 41 -96 77 -127 137 -12 22 -21 36 -21 30 -1 -23 61
-115 101 -150 198 -173 506 -122 626 103 85 160 57 358 -69 484 -43 43 -133
98 -160 98 -7 0 15 -14 49 -30z"/>
<path d="M378 994 c-39 -21 -35 -28 5 -8 37 19 44 24 31 24 -5 -1 -21 -8 -36
-16z"/>
<path d="M512 989 c-119 -16 -239 -112 -282 -225 -36 -99 -26 -225 27 -314 29
-50 34 -22 5 33 -24 46 -27 63 -27 147 0 113 21 167 95 240 73 73 127 95 240
95 84 0 101 -3 147 -28 61 -31 89 -35 53 -7 -59 47 -166 71 -258 59z"/>
<path d="M311 949 c-13 -11 -22 -22 -19 -24 2 -3 15 6 28 20 28 30 24 32 -9 4z"/>
<path d="M251 886 l-24 -31 28 27 c16 15 27 29 24 31 -2 3 -15 -10 -28 -27z"/>
<path d="M2015 896 c-81 -35 -129 -105 -144 -209 -20 -142 37 -268 141 -312
51 -20 143 -19 193 4 50 22 108 86 126 137 19 53 17 199 -3 245 -23 52 -77
109 -123 130 -47 22 -146 24 -190 5z m149 -127 c39 -31 56 -71 56 -133 0 -66
-22 -117 -60 -140 -113 -66 -215 98 -145 234 30 57 102 76 149 39z"/>
<path d="M2500 888 c-25 -13 -55 -39 -68 -58 -20 -29 -23 -44 -20 -94 4 -54 8
-62 45 -96 30 -29 54 -41 99 -50 82 -17 114 -35 114 -65 0 -36 -26 -55 -73
-55 -38 0 -60 10 -119 52 -15 11 -23 8 -55 -25 -45 -44 -41 -56 32 -102 45
-28 56 -30 139 -30 79 0 96 3 130 24 53 33 76 75 76 139 0 95 -39 134 -160
162 -96 22 -124 55 -80 95 25 22 91 16 130 -14 l27 -20 38 39 c34 35 37 41 24
56 -8 10 -36 28 -64 40 -68 32 -154 32 -215 2z"/>
<path d="M3005 891 c-55 -25 -109 -88 -130 -151 -20 -61 -17 -173 8 -231 21
-51 76 -109 122 -130 44 -21 131 -25 185 -9 35 10 123 87 114 101 -2 4 -25 22
-51 39 -46 31 -47 31 -62 12 -36 -45 -87 -53 -139 -22 -40 24 -62 73 -62 135
0 62 22 111 62 135 46 28 81 25 121 -9 l33 -30 47 31 c26 17 47 34 47 38 0 20
-53 69 -95 89 -57 27 -144 28 -200 2z"/>
<path d="M415 890 c-3 -6 1 -7 9 -4 18 7 21 14 7 14 -6 0 -13 -4 -16 -10z"/>
<path d="M705 890 c19 -8 79 -64 75 -72 0 -1 11 -30 26 -62 37 -82 38 -171 1
-241 -31 -60 -104 -138 -119 -129 -7 4 -8 2 -4 -4 11 -18 24 -15 61 13 74 57
122 175 110 271 -9 72 -57 166 -105 204 -21 16 -44 30 -51 29 -8 0 -5 -4 6 -9z"/>
<path d="M1380 635 l0 -265 153 0 c141 0 158 2 197 23 97 51 108 182 19 236
l-30 18 25 16 c52 35 58 130 10 186 -35 42 -77 51 -236 51 l-138 0 0 -265z
m266 134 c17 -19 17 -23 3 -47 -14 -25 -20 -27 -79 -27 l-65 0 -3 48 -3 47 64
0 c52 0 67 -4 83 -21z m-6 -192 c17 -8 26 -22 28 -43 4 -45 -15 -55 -95 -52
l-68 3 -3 39 c-2 21 -1 44 2 52 7 18 101 19 136 1z"/>
<path d="M3370 635 l0 -265 70 0 70 0 0 105 0 105 80 0 80 0 0 -105 0 -105 70
0 70 0 0 265 0 265 -70 0 -70 0 0 -100 0 -100 -80 0 -80 0 0 100 0 100 -70 0
-70 0 0 -265z"/>
<path d="M359 843 l-34 -38 38 34 c34 33 42 41 34 41 -2 0 -19 -17 -38 -37z"/>
<path d="M427 873 c-11 -10 -8 -131 3 -138 6 -3 10 -1 10 4 0 7 44 11 125 11
69 0 125 3 125 8 0 4 -55 6 -123 4 l-123 -3 4 60 c4 56 -3 73 -21 54z"/>
<path d="M205 819 c-9 -17 -15 -33 -13 -35 3 -2 12 12 21 31 21 43 13 47 -8 4z"/>
<path d="M382 798 c-69 -87 -73 -230 -9 -313 14 -18 16 -5 19 153 2 94 2 172
2 172 -1 0 -6 -6 -12 -12z m-4 -225 l-3 -68 -18 37 c-22 48 -22 138 0 186 l18
37 3 -62 c2 -34 2 -93 0 -130z"/>
<path d="M735 635 c0 -96 1 -175 2 -175 6 0 53 89 53 101 0 8 -9 -4 -19 -26
l-19 -40 0 140 0 140 19 -40 c10 -22 19 -34 19 -26 0 12 -47 101 -53 101 -1 0
-2 -79 -2 -175z"/>
<path d="M281 704 c0 -11 3 -14 6 -6 3 7 2 16 -1 19 -3 4 -6 -2 -5 -13z"/>
<path d="M441 702 c-13 -4 -15 -132 -2 -132 4 0 8 8 8 18 0 9 1 36 2 60 l1 42
122 0 c67 0 119 3 115 6 -6 6 -228 12 -246 6z"/>
<path d="M793 635 c0 -33 2 -45 4 -27 2 18 2 45 0 60 -2 15 -4 0 -4 -33z"/>
<path d="M163 625 c0 -33 2 -45 4 -27 2 18 2 45 0 60 -2 15 -4 0 -4 -33z"/>
<path d="M683 635 c0 -27 2 -38 4 -22 2 15 2 37 0 50 -2 12 -4 0 -4 -28z"/>
<path d="M273 630 c0 -25 2 -35 4 -22 2 12 2 32 0 45 -2 12 -4 2 -4 -23z"/>
<path d="M528 573 c7 -3 16 -2 19 1 4 3 -2 6 -13 5 -11 0 -14 -3 -6 -6z"/>
<path d="M578 573 c12 -2 32 -2 45 0 12 2 2 4 -23 4 -25 0 -35 -2 -22 -4z"/>
<path d="M171 540 c0 -8 4 -22 9 -30 12 -18 12 -2 0 25 -6 13 -9 15 -9 5z"/>
<path d="M426 514 c-3 -9 -6 -40 -6 -70 0 -30 -4 -54 -9 -54 -5 0 -30 24 -57
53 -26 28 -42 43 -36 31 13 -25 98 -104 111 -104 5 0 13 32 17 70 l7 70 113 0
113 0 4 -57 3 -58 2 68 2 67 -129 0 c-108 0 -130 -3 -135 -16z"/>
</g>
</svg>
